# xmcd CD database file generated by OrangeCD 6.2
#
# Track frame offsets:
#	150
#	23147
#	38005
#	64617
#	80865
#	94330
#	108840
#	127145
#	146500
#	160260
#	177920
#	197957
#	213950
#	229057
#
# Disc length: 3356 seconds
#
# Revision: 2
# Processed by: cddbd v1.5.2PL0 Copyright (c) Steve Scherf et al.
# Submitted via: OrangeCD 6.2
#
DISCID=c30d1a0e
DTITLE=Magic Slim - Grand Slam
DYEAR=1996
DGENRE=Blues
TTITLE0=Early Every Morning
TTITLE1=She Belongs To Me
TTITLE2=Just To Be With You
TTITLE3=Walking The Dog
TTITLE4=Slammin'
TTITLE5=Rough Dried Woman
TTITLE6=Fannie Mae
TTITLE7=Give Me Back My Wig
TTITLE8=Scuffling
TTITLE9=Make My Dreams Comes Come True
TTITLE10=1823 South Michigan Avenue
TTITLE11=Wonder Why
TTITLE12=If You Need Me
TTITLE13=Teardrop
EXTD=
EXTT0=
EXTT1=
EXTT2=
EXTT3=
EXTT4=
EXTT5=
EXTT6=
EXTT7=
EXTT8=
EXTT9=
EXTT10=
EXTT11=
EXTT12=
EXTT13=
PLAYORDER=
